<svg xmlns="http://www.w3.org/2000/svg" width="50" height="50" viewBox="0 0 50 50"><g transform="translate(-1556 -29)"><path d="M25,1a24.007,24.007,0,0,0-9.342,46.114A24.006,24.006,0,0,0,34.342,2.886,23.849,23.849,0,0,0,25,1m0-1A25,25,0,1,1,0,25,25,25,0,0,1,25,0Z" transform="translate(1556 29)" fill="#fff"/><g transform="translate(3717.146 -1440.234)"><g transform="translate(-2148.137 1483.335)"><path d="M312.738,6.812a3.406,3.406,0,1,1,3.406-3.406A3.41,3.41,0,0,1,312.738,6.812Zm0-5.45a2.044,2.044,0,1,0,2.044,2.044A2.046,2.046,0,0,0,312.738,1.362Zm0,0" transform="translate(-296.162)" fill="#f9f9f9"/><path d="M312.738,358.812a3.406,3.406,0,1,1,3.406-3.406A3.41,3.41,0,0,1,312.738,358.812Zm0-5.45a2.044,2.044,0,1,0,2.044,2.044A2.046,2.046,0,0,0,312.738,353.362Zm0,0" transform="translate(-296.162 -337.013)" fill="#f9f9f9"/><path d="M3.406,182.812a3.406,3.406,0,1,1,3.406-3.406A3.41,3.41,0,0,1,3.406,182.812Zm0-5.45a2.044,2.044,0,1,0,2.044,2.044A2.046,2.046,0,0,0,3.406,177.362Zm0,0" transform="translate(0 -168.507)" fill="#f9f9f9"/><path d="M120.371,101.727a.681.681,0,0,1-.338-1.272l8.428-4.8a.681.681,0,0,1,.674,1.184l-8.428,4.8a.683.683,0,0,1-.336.089Zm0,0" transform="translate(-114.593 -91.491)" fill="#f9f9f9"/><path d="M128.819,277.716a.675.675,0,0,1-.336-.09l-8.428-4.8a.681.681,0,0,1,.674-1.183l8.428,4.8a.682.682,0,0,1-.338,1.273Zm0,0" transform="translate(-114.614 -259.987)" fill="#f9f9f9"/></g><circle cx="2.36" cy="2.36" r="2.36" transform="translate(-2133.932 1484.287)" fill="#f9f9f9"/><circle cx="2.36" cy="2.36" r="2.36" transform="translate(-2147.079 1491.875)" fill="#f9f9f9"/><circle cx="2.36" cy="2.36" r="2.36" transform="translate(-2133.932 1499.628)" fill="#f9f9f9"/></g></g></svg>