<svg xmlns="http://www.w3.org/2000/svg" width="42" height="42" viewBox="0 0 42 42"><g transform="translate(-2.392 82.608)"><path d="M21,0A21,21,0,1,1,0,21,21,21,0,0,1,21,0Z" transform="translate(2.392 -82.608)" fill="#fff"/><g transform="translate(16.421 -71.045)"><g transform="translate(0)"><path d="M312.22,5.776a2.888,2.888,0,1,0-2.888-2.888A2.891,2.891,0,0,0,312.22,5.776Zm0-4.62a1.733,1.733,0,1,1-1.733,1.733A1.735,1.735,0,0,1,312.22,1.155Zm0,0" transform="translate(-309.332)" fill="#dc3545"/><path d="M312.22,357.776a2.888,2.888,0,1,0-2.888-2.888A2.891,2.891,0,0,0,312.22,357.776Zm0-4.62a1.733,1.733,0,1,1-1.733,1.733A1.735,1.735,0,0,1,312.22,353.155Zm0,0" transform="translate(-309.332 -339.294)" fill="#dc3545"/><path d="M2.888,181.776A2.888,2.888,0,1,0,0,178.888,2.891,2.891,0,0,0,2.888,181.776Zm0-4.62a1.733,1.733,0,1,1-1.733,1.733A1.735,1.735,0,0,1,2.888,177.155Zm0,0" transform="translate(11.166 -169.647)" fill="#dc3545"/><path d="M127.411,100.789a.577.577,0,0,0,.287-1.079l-7.146-4.074a.577.577,0,0,0-.571,1l7.146,4.074a.579.579,0,0,0,.285.075Zm0,0" transform="translate(-115.368 -92.11)" fill="#dc3545"/><path d="M120.289,276.778a.572.572,0,0,0,.285-.076l7.146-4.074a.577.577,0,0,0-.572-1L120,275.7a.578.578,0,0,0,.286,1.08Zm0,0" transform="translate(-115.39 -261.746)" fill="#dc3545"/></g><circle cx="2.001" cy="2.001" r="2.001" transform="translate(0.897 0.807)" fill="#dc3545"/><circle cx="2.001" cy="2.001" r="2.001" transform="translate(12.044 7.24)" fill="#dc3545"/><circle cx="2.001" cy="2.001" r="2.001" transform="translate(0.897 13.814)" fill="#dc3545"/></g></g></svg>