<svg xmlns="http://www.w3.org/2000/svg" width="34.029" height="34.029" viewBox="0 0 34.029 34.029"><g transform="translate(0)"><path d="M0,138.268l2.948.228a2.631,2.631,0,0,1,2,1.18l3.4,5.142a1.822,1.822,0,0,1-1.241,2.806l-2.7.418A24.172,24.172,0,0,0,0,138.268Z" transform="translate(25.373 -129.078)" fill="#f5f6f8"/><path d="M236.456,386.176l-.418,2.7a1.821,1.821,0,0,1-2.806,1.241l-5.142-3.4a2.631,2.631,0,0,1-1.179-2l-.228-2.948A24.171,24.171,0,0,0,236.456,386.176Z" transform="translate(-217.492 -356.391)" fill="#f5f6f8"/><path d="M96.334,247.714a1.713,1.713,0,0,1-.282-.023A19.533,19.533,0,0,1,92,246.543L103.1,235.448a19.53,19.53,0,0,1,1.148,4.048,1.739,1.739,0,0,1-.49,1.514L97.566,247.2A1.746,1.746,0,0,1,96.334,247.714Z" transform="translate(-76.356 -219.8)" fill="#f5f6f8"/><path d="M125.626,15.087a26.879,26.879,0,0,1-2.674-13.4A1.747,1.747,0,0,1,124.6.04c.424-.023.926-.04,1.491-.04A26.338,26.338,0,0,1,138,2.713a27.083,27.083,0,0,1,10.773,11.01,1,1,0,0,0-.092.081L136.717,25.768a1,1,0,0,0-.081.092A27.083,27.083,0,0,1,125.626,15.087Zm11.53-7.893a4.985,4.985,0,1,0,1.46,3.525,4.99,4.99,0,0,0-1.46-3.525Z" transform="translate(-122.913 0)" fill="#f5f6f8"/><path d="M310.837,121.4a2.991,2.991,0,1,1,.876-2.115A2.994,2.994,0,0,1,310.837,121.4Z" transform="translate(-298.003 -108.565)" fill="#f5f6f8"/><path d="M4.556,348.213a.993.993,0,0,1-.7-.292L.6,344.666a1,1,0,0,1,1.41-1.41l3.255,3.255a1,1,0,0,1-.7,1.7Z" transform="translate(28.456 -320.17)" fill="#f5f6f8"/><path d="M.3,388.138a1,1,0,0,1,1.41,0L7.963,394.4a1,1,0,0,1-1.41,1.41L.3,389.547a1,1,0,0,1,0-1.41Z" transform="translate(25.774 -362.068)" fill="#f5f6f8"/><path d="M91.768,433.018l3.255,3.255a1,1,0,1,1-1.41,1.41l-3.255-3.255a1,1,0,1,1,1.41-1.41Z" transform="translate(-67.272 -403.966)" fill="#f5f6f8"/></g></svg>