<svg xmlns="http://www.w3.org/2000/svg" width="125.668" height="30.363" viewBox="0 0 125.668 30.363"><g transform="translate(106.269)"><path d="M19.712,0,8.2,10.181,2,4.8v5.453l6.2,5.77,11.514-10.4Z" transform="translate(-0.313)" fill="#fff" fill-rule="evenodd"/><path d="M8.589,19.591h0a1.142,1.142,0,0,0,1.62.41,1.108,1.108,0,0,1,1.728.942,1.08,1.08,0,0,0,1.186,1.12,1.05,1.05,0,0,1,1,1.632,1.019,1.019,0,0,0,.434,1.53,1.023,1.023,0,0,1,0,1.885,1.019,1.019,0,0,0-.434,1.53,1.051,1.051,0,0,1-1,1.633,1.079,1.079,0,0,0-1.186,1.12,1.108,1.108,0,0,1-1.728.943,1.142,1.142,0,0,0-1.62.41,1.138,1.138,0,0,1-2,0,1.142,1.142,0,0,0-1.62-.41,1.109,1.109,0,0,1-1.729-.943,1.079,1.079,0,0,0-1.186-1.12,1.051,1.051,0,0,1-1-1.633,1.019,1.019,0,0,0-.434-1.53,1.023,1.023,0,0,1,0-1.885,1.019,1.019,0,0,0,.434-1.53,1.05,1.05,0,0,1,1-1.632,1.079,1.079,0,0,0,1.186-1.12A1.109,1.109,0,0,1,4.972,20a1.142,1.142,0,0,0,1.62-.41,1.138,1.138,0,0,1,2,0" transform="translate(0 -2.975)" fill="#fff" fill-rule="evenodd"/></g><g transform="translate(0 8.434)"><path d="M35.517,10.1H30.341a2.169,2.169,0,0,1-2.166-2.166V5.765h7.342a2.166,2.166,0,1,1,0,4.332m0-7.278H25.23V7.931A2.169,2.169,0,0,1,23.063,10.1h-1.9A2.169,2.169,0,0,1,19,7.931,5.117,5.117,0,0,0,13.884,2.82H5.111a5.111,5.111,0,1,0,0,10.223h9.671V10.1H5.111a2.166,2.166,0,1,1,0-4.332h8.773a2.169,2.169,0,0,1,2.166,2.166,5.117,5.117,0,0,0,5.112,5.111h1.9A5.094,5.094,0,0,0,26.7,11.515a5.1,5.1,0,0,0,3.639,1.528h5.176a5.111,5.111,0,1,0,0-10.223M87.6,2.836H81.07L83.776,0h-4.04L74.227,5.795h4.02l.013-.014H87.6a2.158,2.158,0,1,1,0,4.316H74.531a2.318,2.318,0,0,1-2.316-2.316V1.387H69.27V7.782a5.267,5.267,0,0,0,5.261,5.261H87.6a5.1,5.1,0,1,0,0-10.207M63.3,7.782A2.208,2.208,0,0,1,61.107,10.1v2.945a5.145,5.145,0,0,0,5.139-5.261V2.775H63.3Zm-7.019.159A2.159,2.159,0,0,1,54.125,10.1h-6.04a2.159,2.159,0,0,1-2.156-2.156V1.387H42.983V7.941a5.107,5.107,0,0,0,5.1,5.1h6.04a5.107,5.107,0,0,0,5.1-5.1V5.754H56.281Z" fill="#fff" fill-rule="evenodd"/><path d="M61.558,4.55h3.155v-2.9H61.558Z" transform="translate(-9.64 -0.258)" fill="#fff" fill-rule="evenodd"/></g></svg>