<svg xmlns="http://www.w3.org/2000/svg" width="105" height="102" viewBox="0 0 105 102"><g transform="translate(-325 -489)"><ellipse cx="52.5" cy="51" rx="52.5" ry="51" transform="translate(325 489)" fill="#dc3545"/><path d="M52.5,3A50.514,50.514,0,0,0,33.2,6.783,49.45,49.45,0,0,0,17.467,17.089,47.79,47.79,0,0,0,6.876,32.346a46.822,46.822,0,0,0,0,37.308A47.79,47.79,0,0,0,17.467,84.911,49.45,49.45,0,0,0,33.2,95.217a51.1,51.1,0,0,0,38.59,0A49.45,49.45,0,0,0,87.533,84.911,47.79,47.79,0,0,0,98.124,69.654a46.822,46.822,0,0,0,0-37.308A47.79,47.79,0,0,0,87.533,17.089,49.45,49.45,0,0,0,71.8,6.783,50.514,50.514,0,0,0,52.5,3m0-3C81.495,0,105,22.833,105,51s-23.505,51-52.5,51S0,79.167,0,51,23.505,0,52.5,0Z" transform="translate(325 489)" fill="#dc3545"/><g transform="translate(358 519.685)"><g transform="translate(2.292)"><path d="M34.584,9.168a4.584,4.584,0,1,1,4.584-4.584A4.588,4.588,0,0,1,34.584,9.168Z" transform="translate(-30)" fill="#fff"/></g><g transform="translate(27.656 23.072)"><path d="M366.584,311.168a4.584,4.584,0,1,1,4.584-4.584A4.588,4.588,0,0,1,366.584,311.168Z" transform="translate(-362 -302)" fill="#fff"/></g><path d="M24.392,251.214A9.726,9.726,0,0,1,19.13,247a10.209,10.209,0,0,0-8.816-5,10.314,10.314,0,1,0,0,20.627,10.213,10.213,0,0,0,8.809-4.981,9.83,9.83,0,0,1,5.306-4.246,1.137,1.137,0,0,0,.766-1.093,1.172,1.172,0,0,0-.8-1.093Zm-14.078,6.83A1.146,1.146,0,1,1,11.46,256.9,1.146,1.146,0,0,1,10.314,258.044Zm1.16-4.784a1.242,1.242,0,0,1-1.153,1.246,1.071,1.071,0,0,1-1.154-1.045A2.384,2.384,0,0,1,10.7,251.1a1.147,1.147,0,1,0-1.534-1.08,1.146,1.146,0,0,1-2.292,0,3.438,3.438,0,1,1,4.6,3.238Z" transform="translate(0 -223.512)" fill="#fff"/><g transform="translate(0 9.168)"><path d="M12.606,126.876H1.146A1.145,1.145,0,0,1,0,125.73,5.737,5.737,0,0,1,5.73,120H8.022a5.737,5.737,0,0,1,5.73,5.73A1.145,1.145,0,0,1,12.606,126.876Z" transform="translate(0 -120)" fill="#fff"/></g><g transform="translate(25.364 32.24)"><path d="M344.606,428.876h-11.46A1.145,1.145,0,0,1,332,427.73a5.737,5.737,0,0,1,5.73-5.73h2.292a5.737,5.737,0,0,1,5.73,5.73A1.145,1.145,0,0,1,344.606,428.876Z" transform="translate(-332 -422)" fill="#fff"/></g><path d="M196.853,0c-4.841,0-6.963,1.911-8.816,4.995a8.856,8.856,0,0,1-4.907,4.027,1.513,1.513,0,0,0-1.12.912,1.166,1.166,0,0,0,.736,1.469,9.826,9.826,0,0,1,5.3,4.244,10.213,10.213,0,0,0,8.808,4.981,10.314,10.314,0,0,0,0-20.627Zm4.387,8.693-4.723,4.723a1.145,1.145,0,0,1-1.62,0l-2.431-2.431a1.146,1.146,0,1,1,1.62-1.62l1.62,1.62,3.912-3.912a1.146,1.146,0,1,1,1.62,1.62Z" transform="translate(-168.051)" fill="#fff"/></g></g></svg>