<svg xmlns="http://www.w3.org/2000/svg" xmlns:xlink="http://www.w3.org/1999/xlink" width="1920" height="403" viewBox="0 0 1920 403"><defs><clipPath id="a"><rect width="1920" height="403" transform="translate(0 6335)" fill="#000e39" stroke="#707070" stroke-width="1"/></clipPath><linearGradient id="b" x1="0.445" y1="-1.51" x2="1.046" y2="-2.434" gradientUnits="objectBoundingBox"><stop offset="0" stop-color="#fff" stop-opacity="0"/><stop offset="0.043" stop-color="#fafaf9" stop-opacity="0.055"/><stop offset="0.384" stop-color="#dad7d1" stop-opacity="0.455"/><stop offset="0.669" stop-color="#c3bdb4" stop-opacity="0.749"/><stop offset="0.882" stop-color="#b5ada2" stop-opacity="0.933"/><stop offset="1" stop-color="#b0a89c"/></linearGradient><radialGradient id="c" cx="0.158" cy="0.285" r="0.772" gradientTransform="translate(0.151) scale(0.697 1)" gradientUnits="objectBoundingBox"><stop offset="0" stop-color="#fff"/><stop offset="0.098" stop-color="#fff" stop-opacity="0.824"/><stop offset="0.232" stop-color="#fff" stop-opacity="0.608"/><stop offset="0.367" stop-color="#fff" stop-opacity="0.42"/><stop offset="0.5" stop-color="#fff" stop-opacity="0.271"/><stop offset="0.631" stop-color="#fff" stop-opacity="0.153"/><stop offset="0.759" stop-color="#fff" stop-opacity="0.067"/><stop offset="0.884" stop-color="#fff" stop-opacity="0.016"/><stop offset="1" stop-color="#fff" stop-opacity="0"/></radialGradient><radialGradient id="d" cx="0.776" cy="0.822" r="0.482" gradientTransform="translate(1.443 0.855) rotate(180) scale(1.031 1)" xlink:href="#c"/><radialGradient id="e" cx="0.805" cy="0.586" r="0.837" gradientTransform="translate(4.792 4.461) rotate(180) scale(0.678 1)" xlink:href="#c"/><linearGradient id="f" x1="-0.079" y1="0.154" x2="0.584" y2="-0.922" xlink:href="#b"/><radialGradient id="g" cx="-0.107" cy="0.382" r="0.496" gradientTransform="translate(-0.989 0.759) rotate(180) scale(1.454 1)" gradientUnits="objectBoundingBox"><stop offset="0" stop-color="#b0a89c"/><stop offset="0.118" stop-color="#b5ada2" stop-opacity="0.933"/><stop offset="0.331" stop-color="#c3bdb4" stop-opacity="0.749"/><stop offset="0.616" stop-color="#dad7d1" stop-opacity="0.455"/><stop offset="0.957" stop-color="#fafaf9" stop-opacity="0.055"/><stop offset="1" stop-color="#fff" stop-opacity="0"/></radialGradient><linearGradient id="h" x1="1.98" y1="-0.488" x2="2.599" y2="-1.173" xlink:href="#b"/><linearGradient id="i" x1="1.533" y1="1.259" x2="2.099" y2="0.179" xlink:href="#b"/><linearGradient id="j" x1="-2.751" y1="1.05" x2="-1.938" y2="0.209" xlink:href="#b"/><linearGradient id="k" x1="-1.222" y1="2.286" x2="-0.4" y2="1.439" xlink:href="#b"/><linearGradient id="l" x1="-1.613" y1="2.744" x2="-0.647" y2="1.727" xlink:href="#b"/></defs><g transform="translate(0 -6335)" clip-path="url(#a)"><rect width="1920" height="403" transform="translate(0 6335)" fill="#000e39"/><path d="M1,1V402H1919V1H1M0,0H1920V403H0Z" transform="translate(0 6335)" fill="#707070"/><g transform="translate(-77.995 6437.717)"><g transform="translate(1 -140)"><path d="M466.909,433.872,565.45,329.236l-87.47-84.395L299.96,433.872Z" fill="url(#b)" style="mix-blend-mode:multiply;isolation:isolate"/><path d="M255.636,433.872l87.788-93.218-87.47-84.4L88.688,433.872Z" fill="url(#c)" style="mix-blend-mode:overlay;isolation:isolate"/><path d="M450.2,371.167l-87.47-84.395L551.566,86.251l87.47,84.395Z" opacity="0.59" fill="url(#d)" style="mix-blend-mode:overlay;isolation:isolate"/><path d="M200.317,33.487l-74.842,79.471,87.47,84.395L367.265,33.487Z" fill="url(#e)" style="mix-blend-mode:overlay;isolation:isolate"/><path d="M324.827,33.487l-87.994,91.571,97.424,94.349L512.915,33.487Z" fill="url(#f)" style="mix-blend-mode:multiply;isolation:isolate"/><path d="M165.719,58.764,63.333,165.311V322.544l2.29,2.217,180.647-187.99Z" fill="url(#g)" style="mix-blend-mode:multiply;isolation:isolate"/><path d="M169.443,433.872l124.4-131.35-95.87-96.248L63.333,348.437V414.53L82.6,433.872Z" opacity="0.7" fill="url(#h)" style="mix-blend-mode:multiply;isolation:isolate"/><path d="M397.741,433.872l18.7-19.745-78.035-78.29-92.846,98.034Z" fill="url(#i)" style="mix-blend-mode:color-burn;isolation:isolate"/><path d="M346.613,249.657l-1.91-2.066,68.725-72.565,1.91,2.066Z" fill="url(#j)" style="mix-blend-mode:overlay;isolation:isolate"/><path d="M436.835,227.78l-2.488-2.69,137.163-145.6L574,82.183Z" opacity="0.65" fill="url(#k)" style="mix-blend-mode:overlay;isolation:isolate"/><path d="M537.6,433.872,651.391,313.09,648.9,310.4,532.582,433.872Z" fill="url(#l)" style="mix-blend-mode:overlay;isolation:isolate"/></g></g></g></svg>