<svg xmlns="http://www.w3.org/2000/svg" width="183.747" height="178.565" viewBox="0 0 183.747 178.565"><g transform="translate(-320.292 40.416)" opacity="0.5"><g transform="translate(320.292 -40.416)"><g transform="translate(0.019)"><g transform="translate(0 0.046)"><path d="M323.453-34.1a3.171,3.171,0,0,1-2.239-.939,3.148,3.148,0,0,1-.911-2.233,3.178,3.178,0,0,1,.916-2.232,3.281,3.281,0,0,1,4.479-.012,3.248,3.248,0,0,1,.922,2.248,3.175,3.175,0,0,1-.922,2.23A3.136,3.136,0,0,1,323.453-34.1Z" transform="translate(-320.303 40.39)" fill="#dc3545"/></g><g transform="translate(16.123)"><path d="M474.565-37.245a3.169,3.169,0,0,1,3.171-3.167h0a3.157,3.157,0,0,1,3.167,3.167h0a3.171,3.171,0,0,1-3.167,3.169h0A3.182,3.182,0,0,1,474.565-37.245Zm-16.123,0a3.165,3.165,0,0,1,3.166-3.167h0a3.156,3.156,0,0,1,3.171,3.167h0a3.17,3.17,0,0,1-3.171,3.169h0A3.178,3.178,0,0,1,458.443-37.245Zm-16.126,0a3.157,3.157,0,0,1,3.167-3.167h0a3.166,3.166,0,0,1,3.169,3.167h0a3.178,3.178,0,0,1-3.169,3.169h0A3.167,3.167,0,0,1,442.316-37.245Zm-16.124,0a3.158,3.158,0,0,1,3.167-3.167h0a3.166,3.166,0,0,1,3.169,3.167h0a3.18,3.18,0,0,1-3.167,3.169h0A3.17,3.17,0,0,1,426.192-37.245Zm-16.123,0a3.153,3.153,0,0,1,3.155-3.167h0a3.168,3.168,0,0,1,3.18,3.167h0a3.18,3.18,0,0,1-3.18,3.169h0A3.167,3.167,0,0,1,410.069-37.245Zm-16.137,0a3.161,3.161,0,0,1,3.166-3.167h0a3.156,3.156,0,0,1,3.169,3.167h0a3.17,3.17,0,0,1-3.169,3.169h0A3.177,3.177,0,0,1,393.933-37.245Zm-16.124,0a3.162,3.162,0,0,1,3.164-3.167h0a3.149,3.149,0,0,1,3.169,3.167h0a3.162,3.162,0,0,1-3.169,3.166h0A3.167,3.167,0,0,1,377.808-37.245Zm-16.123,0a3.163,3.163,0,0,1,3.169-3.167h0a3.167,3.167,0,0,1,3.166,3.167h0a3.183,3.183,0,0,1-3.166,3.169h0A3.177,3.177,0,0,1,361.686-37.245Zm-16.13,0a3.162,3.162,0,0,1,3.169-3.171h0a3.174,3.174,0,0,1,3.171,3.167h0a3.182,3.182,0,0,1-3.171,3.173h0A3.172,3.172,0,0,1,345.556-37.245Zm-16.121,0a3.153,3.153,0,0,1,3.166-3.167h0a3.16,3.16,0,0,1,3.166,3.167h0a3.172,3.172,0,0,1-3.164,3.169h0A3.167,3.167,0,0,1,329.435-37.245Z" transform="translate(-329.435 40.416)" fill="#dc3545"/></g><g transform="translate(177.376 0.044)"><path d="M423.939-34.1a3.132,3.132,0,0,1-2.233-.932,3.2,3.2,0,0,1-.936-2.233,3.219,3.219,0,0,1,.936-2.235,3.28,3.28,0,0,1,4.483-.012,3.267,3.267,0,0,1,.932,2.248,3.206,3.206,0,0,1-.93,2.233A3.136,3.136,0,0,1,423.939-34.1Z" transform="translate(-420.77 40.391)" fill="#dc3545"/></g></g><g transform="translate(0.019 17.441)"><g transform="translate(0 0.039)"><path d="M323.453-24.216a3.225,3.225,0,0,1-2.233-.939,3.179,3.179,0,0,1-.916-2.228,3.2,3.2,0,0,1,.916-2.253,3.292,3.292,0,0,1,4.479,0,3.233,3.233,0,0,1,.925,2.249,3.2,3.2,0,0,1-.925,2.232A3.242,3.242,0,0,1,323.453-24.216Z" transform="translate(-320.303 30.515)" fill="#dc3545"/></g><g transform="translate(16.123)"><path d="M474.565-27.37a3.165,3.165,0,0,1,3.171-3.167h0A3.158,3.158,0,0,1,480.9-27.37h0a3.168,3.168,0,0,1-3.166,3.167h0A3.176,3.176,0,0,1,474.565-27.37Zm-16.123,0a3.169,3.169,0,0,1,3.166-3.167h0a3.17,3.17,0,0,1,3.171,3.167h0a3.181,3.181,0,0,1-3.171,3.171h0A3.182,3.182,0,0,1,458.443-27.37Zm-16.126,0a3.158,3.158,0,0,1,3.167-3.167h0a3.171,3.171,0,0,1,3.173,3.171h0a3.181,3.181,0,0,1-3.169,3.164h0A3.168,3.168,0,0,1,442.316-27.37Zm-16.119,0a3.156,3.156,0,0,1,3.167-3.171h0a3.165,3.165,0,0,1,3.164,3.167h0a3.174,3.174,0,0,1-3.169,3.167h0A3.157,3.157,0,0,1,426.2-27.366Zm-16.128,0a3.15,3.15,0,0,1,3.151-3.167h0a3.153,3.153,0,0,1,3.169,3.171h0a3.165,3.165,0,0,1-3.166,3.164h0A3.164,3.164,0,0,1,410.069-27.37Zm-16.137,0a3.165,3.165,0,0,1,3.166-3.171h0a3.16,3.16,0,0,1,3.167,3.167h0a3.166,3.166,0,0,1-3.171,3.167h0A3.175,3.175,0,0,1,393.933-27.366Zm-16.13,0a3.17,3.17,0,0,1,3.169-3.167h0a3.159,3.159,0,0,1,3.171,3.167h0a3.169,3.169,0,0,1-3.171,3.167h0A3.182,3.182,0,0,1,377.8-27.37Zm-16.119,0a3.154,3.154,0,0,1,3.166-3.166h0a3.159,3.159,0,0,1,3.167,3.169h0a3.177,3.177,0,0,1-3.167,3.164h0A3.162,3.162,0,0,1,361.684-27.37Zm-16.124,0a3.159,3.159,0,0,1,3.169-3.171h0a3.16,3.16,0,0,1,3.166,3.167h0a3.174,3.174,0,0,1-3.169,3.167h0A3.165,3.165,0,0,1,345.559-27.366Zm-16.124,0a3.154,3.154,0,0,1,3.167-3.171h0a3.172,3.172,0,0,1,3.169,3.171h0A3.183,3.183,0,0,1,332.6-24.2h0A3.174,3.174,0,0,1,329.435-27.366Z" transform="translate(-329.435 30.537)" fill="#dc3545"/></g><g transform="translate(177.374 0.039)"><path d="M423.94-24.219a3.2,3.2,0,0,1-2.233-.936,3.207,3.207,0,0,1-.937-2.232,3.255,3.255,0,0,1,.937-2.249,3.3,3.3,0,0,1,4.484,0,3.24,3.24,0,0,1,.93,2.249,3.207,3.207,0,0,1-.93,2.235A3.225,3.225,0,0,1,423.94-24.219Z" transform="translate(-420.769 30.515)" fill="#dc3545"/></g></g><g transform="translate(0 34.323)"><g transform="translate(0 0.058)"><path d="M323.48-14.664a3.2,3.2,0,0,1-2.253-.92,3.24,3.24,0,0,1-.936-2.247,3.2,3.2,0,0,1,.936-2.23,3.292,3.292,0,0,1,4.479,0,3.179,3.179,0,0,1,.922,2.235,3.208,3.208,0,0,1-.922,2.249A3.182,3.182,0,0,1,323.48-14.664Z" transform="translate(-320.292 20.942)" fill="#dc3545"/></g><g transform="translate(16.139)"><path d="M474.567-17.806a3.184,3.184,0,0,1,3.171-3.169h0a3.168,3.168,0,0,1,3.166,3.169h0a3.158,3.158,0,0,1-3.169,3.167h0A3.167,3.167,0,0,1,474.567-17.806Zm-16.124,0a3.181,3.181,0,0,1,3.167-3.169h0a3.181,3.181,0,0,1,3.171,3.171h0a3.175,3.175,0,0,1-3.171,3.171h0A3.173,3.173,0,0,1,458.442-17.806Zm-16.123,0a3.162,3.162,0,0,1,3.169-3.166h0a3.169,3.169,0,0,1,3.166,3.164h0a3.16,3.16,0,0,1-3.169,3.167h0A3.15,3.15,0,0,1,442.32-17.8Zm-16.121,0a3.162,3.162,0,0,1,3.162-3.169h0a3.178,3.178,0,0,1,3.169,3.169h0a3.162,3.162,0,0,1-3.167,3.167h0A3.147,3.147,0,0,1,426.2-17.806Zm-16.14,0a3.173,3.173,0,0,1,3.167-3.169h0a3.163,3.163,0,0,1,3.166,3.169h0a3.155,3.155,0,0,1-3.166,3.167h0A3.156,3.156,0,0,1,410.059-17.806Zm-16.124,0a3.173,3.173,0,0,1,3.162-3.169h0a3.169,3.169,0,0,1,3.171,3.171h0a3.156,3.156,0,0,1-3.167,3.166h0A3.162,3.162,0,0,1,393.934-17.806Zm-16.13,0a3.181,3.181,0,0,1,3.169-3.169h0a3.166,3.166,0,0,1,3.169,3.171h0a3.158,3.158,0,0,1-3.169,3.171h0A3.177,3.177,0,0,1,377.8-17.806Zm-16.119,0a3.182,3.182,0,0,1,3.166-3.169h0a3.18,3.18,0,0,1,3.171,3.171h0a3.175,3.175,0,0,1-3.166,3.171h0A3.17,3.17,0,0,1,361.685-17.806Zm-16.124,0a3.166,3.166,0,0,1,3.166-3.169h0a3.183,3.183,0,0,1,3.171,3.169h0a3.176,3.176,0,0,1-3.171,3.173h0A3.16,3.16,0,0,1,345.561-17.806Zm-16.128,0a3.174,3.174,0,0,1,3.169-3.169h0a3.175,3.175,0,0,1,3.166,3.171h0a3.166,3.166,0,0,1-3.166,3.171h0A3.16,3.16,0,0,1,329.433-17.806Z" transform="translate(-329.433 20.975)" fill="#dc3545"/></g><g transform="translate(177.393 0.056)"><path d="M423.94-14.658a3.212,3.212,0,0,1-2.233-.922,3.264,3.264,0,0,1-.937-2.251,3.216,3.216,0,0,1,.937-2.233,3.3,3.3,0,0,1,4.484,0,3.2,3.2,0,0,1,.916,2.233,3.2,3.2,0,0,1-.918,2.247A3.254,3.254,0,0,1,423.94-14.658Z" transform="translate(-420.769 20.943)" fill="#dc3545"/></g></g><g transform="translate(0.004 51.761)"><g transform="translate(0 0.043)"><path d="M323.479-4.777a3.262,3.262,0,0,1-2.253-.922,3.244,3.244,0,0,1-.932-2.247,3.241,3.241,0,0,1,.932-2.247,3.293,3.293,0,0,1,4.483,0,3.21,3.21,0,0,1,.918,2.247,3.17,3.17,0,0,1-.918,2.233A3.166,3.166,0,0,1,323.479-4.777Z" transform="translate(-320.294 11.074)" fill="#dc3545"/></g><g transform="translate(16.139 0)"><path d="M474.565-7.927a3.169,3.169,0,0,1,3.171-3.167h0A3.156,3.156,0,0,1,480.9-7.927h0a3.167,3.167,0,0,1-3.166,3.169h0A3.182,3.182,0,0,1,474.565-7.927Zm-16.123,0a3.154,3.154,0,0,1,3.166-3.164h0a3.169,3.169,0,0,1,3.171,3.167h0a3.171,3.171,0,0,1-3.171,3.164h0A3.16,3.16,0,0,1,458.443-7.931Zm-16.126,0a3.157,3.157,0,0,1,3.167-3.167h0a3.164,3.164,0,0,1,3.169,3.164h0a3.168,3.168,0,0,1-3.169,3.167h0A3.166,3.166,0,0,1,442.316-7.927Zm-16.124,0a3.162,3.162,0,0,1,3.169-3.167h0a3.167,3.167,0,0,1,3.169,3.167h0a3.184,3.184,0,0,1-3.169,3.169h0A3.173,3.173,0,0,1,426.192-7.927Zm-16.139,0a3.166,3.166,0,0,1,3.167-3.167h0A3.169,3.169,0,0,1,416.4-7.927h0a3.183,3.183,0,0,1-3.183,3.169h0A3.184,3.184,0,0,1,410.053-7.927Zm-16.121,0a3.16,3.16,0,0,1,3.166-3.164h0a3.158,3.158,0,0,1,3.169,3.167h0A3.172,3.172,0,0,1,397.1-4.758h0A3.176,3.176,0,0,1,393.933-7.931Zm-16.124,0a3.164,3.164,0,0,1,3.164-3.167h0a3.161,3.161,0,0,1,3.171,3.171h0a3.171,3.171,0,0,1-3.167,3.166h0A3.18,3.18,0,0,1,377.808-7.927Zm-16.126,0a3.161,3.161,0,0,1,3.167-3.171h0a3.172,3.172,0,0,1,3.171,3.167h0a3.18,3.18,0,0,1-3.171,3.173h0A3.167,3.167,0,0,1,361.682-7.927Zm-16.123,0a3.154,3.154,0,0,1,3.166-3.164h0a3.165,3.165,0,0,1,3.169,3.167h0a3.171,3.171,0,0,1-3.166,3.164h0A3.165,3.165,0,0,1,345.559-7.931Zm-16.124,0a3.155,3.155,0,0,1,3.167-3.167h0a3.16,3.16,0,0,1,3.164,3.164h0A3.164,3.164,0,0,1,332.6-4.763h0A3.165,3.165,0,0,1,329.435-7.927Z" transform="translate(-329.435 11.098)" fill="#dc3545"/></g><g transform="translate(177.39 0.043)"><path d="M423.94-4.777A3.216,3.216,0,0,1,421.7-5.7a3.289,3.289,0,0,1-.936-2.247,3.217,3.217,0,0,1,.937-2.237,3.278,3.278,0,0,1,4.483-.011,3.26,3.26,0,0,1,.932,2.247,3.2,3.2,0,0,1-.93,2.233A3.184,3.184,0,0,1,423.94-4.777Z" transform="translate(-420.769 11.074)" fill="#dc3545"/></g></g><g transform="translate(0.016 67.586)"><g transform="translate(0 0.052)"><path d="M323.456,4.177a3.2,3.2,0,0,1-2.235-.916,3.238,3.238,0,0,1-.92-2.247,3.207,3.207,0,0,1,.92-2.233,3.278,3.278,0,0,1,4.483,0,3.187,3.187,0,0,1,.922,2.23,3.231,3.231,0,0,1-.925,2.251A3.194,3.194,0,0,1,323.456,4.177Z" transform="translate(-320.301 2.106)" fill="#dc3545"/></g><g transform="translate(16.126)"><path d="M474.565,1.032a3.176,3.176,0,0,1,3.171-3.164h0A3.163,3.163,0,0,1,480.9,1.032h0A3.152,3.152,0,0,1,477.736,4.2h0A3.162,3.162,0,0,1,474.565,1.032Zm-16.123,0a3.166,3.166,0,0,1,3.166-3.167h0a3.171,3.171,0,0,1,3.171,3.167h0A3.16,3.16,0,0,1,461.608,4.2h0A3.155,3.155,0,0,1,458.443,1.032Zm-16.128,0a3.168,3.168,0,0,1,3.169-3.167h0a3.175,3.175,0,0,1,3.169,3.171h0A3.164,3.164,0,0,1,445.484,4.2h0A3.158,3.158,0,0,1,442.315,1.032Zm-16.123,0a3.167,3.167,0,0,1,3.167-3.167h0a3.179,3.179,0,0,1,3.171,3.171h0A3.176,3.176,0,0,1,429.365,4.2h0A3.162,3.162,0,0,1,426.192,1.032Zm-16.139,0a3.181,3.181,0,0,1,3.181-3.171h0a3.167,3.167,0,0,1,3.155,3.171h0A3.157,3.157,0,0,1,413.233,4.2h0A3.173,3.173,0,0,1,410.053,1.036Zm-16.124,0A3.182,3.182,0,0,1,397.1-2.135h0a3.179,3.179,0,0,1,3.171,3.167h0A3.17,3.17,0,0,1,397.1,4.2h0A3.177,3.177,0,0,1,393.929,1.036Zm-16.121,0a3.173,3.173,0,0,1,3.167-3.167h0a3.163,3.163,0,0,1,3.167,3.164h0A3.156,3.156,0,0,1,380.972,4.2h0A3.162,3.162,0,0,1,377.808,1.036Zm-16.124,0a3.169,3.169,0,0,1,3.166-3.167h0a3.183,3.183,0,0,1,3.171,3.171h0A3.161,3.161,0,0,1,364.855,4.2h0A3.15,3.15,0,0,1,361.684,1.032Zm-16.124,0a3.162,3.162,0,0,1,3.166-3.164h0a3.173,3.173,0,0,1,3.169,3.167h0A3.159,3.159,0,0,1,348.725,4.2h0A3.155,3.155,0,0,1,345.559,1.032Zm-16.124,0a3.165,3.165,0,0,1,3.15-3.171h0a3.179,3.179,0,0,1,3.183,3.167h0A3.167,3.167,0,0,1,332.585,4.2h0A3.147,3.147,0,0,1,329.435,1.036Z" transform="translate(-329.435 2.135)" fill="#dc3545"/></g><g transform="translate(177.379 0.051)"><path d="M423.953,4.177a3.2,3.2,0,0,1-2.247-.916,3.246,3.246,0,0,1-.936-2.247,3.188,3.188,0,0,1,.936-2.233,3.284,3.284,0,0,1,4.484,0,3.2,3.2,0,0,1,.916,2.233,3.232,3.232,0,0,1-.918,2.251A3.2,3.2,0,0,1,423.953,4.177Z" transform="translate(-420.77 2.106)" fill="#dc3545"/></g></g><g transform="translate(0 85.025)"><g transform="translate(0 0.041)"><path d="M323.461,14.062a3.132,3.132,0,0,1-2.233-.936,3.223,3.223,0,0,1-.936-2.233,3.171,3.171,0,0,1,.939-2.233,3.172,3.172,0,0,1,5.417,2.233,3.247,3.247,0,0,1-.937,2.233A3.177,3.177,0,0,1,323.461,14.062Z" transform="translate(-320.292 -7.766)" fill="#dc3545"/></g><g transform="translate(16.139 0)"><path d="M474.567,10.91a3.166,3.166,0,0,1,3.171-3.167h0A3.154,3.154,0,0,1,480.9,10.91h0a3.173,3.173,0,0,1-3.166,3.169h0A3.183,3.183,0,0,1,474.567,10.91Zm-16.123,0a3.158,3.158,0,0,1,3.166-3.167h0a3.165,3.165,0,0,1,3.171,3.167h0a3.175,3.175,0,0,1-3.171,3.164h0A3.159,3.159,0,0,1,458.444,10.91Zm-16.126,0a3.156,3.156,0,0,1,3.167-3.167h0a3.167,3.167,0,0,1,3.169,3.167h0a3.169,3.169,0,0,1-3.169,3.164h0A3.162,3.162,0,0,1,442.318,10.91Zm-16.124,0a3.159,3.159,0,0,1,3.167-3.167h0a3.165,3.165,0,0,1,3.169,3.167h0a3.184,3.184,0,0,1-3.169,3.169h0A3.173,3.173,0,0,1,426.194,10.91Zm-16.139,0a3.165,3.165,0,0,1,3.166-3.167h0a3.17,3.17,0,0,1,3.185,3.167h0a3.183,3.183,0,0,1-3.18,3.169h0A3.179,3.179,0,0,1,410.055,10.91Zm-16.121,0A3.167,3.167,0,0,1,397.1,7.743h0a3.159,3.159,0,0,1,3.169,3.167h0a3.174,3.174,0,0,1-3.173,3.169h0A3.177,3.177,0,0,1,393.934,10.914Zm-16.124,0a3.167,3.167,0,0,1,3.164-3.167h0a3.159,3.159,0,0,1,3.171,3.167h0a3.172,3.172,0,0,1-3.167,3.169h0A3.174,3.174,0,0,1,377.81,10.91Zm-16.124,0a3.156,3.156,0,0,1,3.171-3.167h0a3.167,3.167,0,0,1,3.166,3.167h0a3.181,3.181,0,0,1-3.171,3.169h0A3.169,3.169,0,0,1,361.685,10.91Zm-16.124,0a3.151,3.151,0,0,1,3.169-3.167h0A3.166,3.166,0,0,1,351.9,10.91h0a3.178,3.178,0,0,1-3.169,3.169h0A3.167,3.167,0,0,1,345.561,10.91Zm-16.128,0A3.158,3.158,0,0,1,332.6,7.743h0a3.163,3.163,0,0,1,3.166,3.167h0a3.176,3.176,0,0,1-3.166,3.169h0A3.173,3.173,0,0,1,329.433,10.91Z" transform="translate(-329.433 -7.743)" fill="#dc3545"/></g><g transform="translate(177.411 0.043)"><path d="M423.932,14.061a3.168,3.168,0,0,1-3.153-3.169,3.187,3.187,0,0,1,.92-2.233,3.266,3.266,0,0,1,4.484,0,3.17,3.17,0,0,1-2.251,5.4Z" transform="translate(-420.779 -7.767)" fill="#dc3545"/></g></g><g transform="translate(0.004 101.925)"><g transform="translate(0 0.039)"><path d="M323.477,23.636a3.172,3.172,0,0,1-2.249-5.42,3.294,3.294,0,0,1,4.481,0,3.195,3.195,0,0,1,0,4.483A3.231,3.231,0,0,1,323.477,23.636Z" transform="translate(-320.294 -17.337)" fill="#dc3545"/></g><g transform="translate(16.139)"><path d="M474.565,20.482a3.169,3.169,0,0,1,3.171-3.167h0a3.156,3.156,0,0,1,3.166,3.171h0a3.172,3.172,0,0,1-3.166,3.167h0A3.184,3.184,0,0,1,474.565,20.482Zm-16.123,0a3.167,3.167,0,0,1,3.166-3.167h0a3.167,3.167,0,0,1,3.171,3.167h0a3.18,3.18,0,0,1-3.171,3.167h0A3.172,3.172,0,0,1,458.443,20.482Zm-16.126,0a3.155,3.155,0,0,1,3.167-3.167h0a3.167,3.167,0,0,1,3.169,3.167h0a3.171,3.171,0,0,1-3.169,3.167h0A3.168,3.168,0,0,1,442.316,20.482Zm-16.124,0a3.159,3.159,0,0,1,3.167-3.167h0a3.17,3.17,0,0,1,3.169,3.171h0a3.183,3.183,0,0,1-3.169,3.167h0A3.171,3.171,0,0,1,426.192,20.482Zm-16.139,0a3.164,3.164,0,0,1,3.166-3.167h0a3.151,3.151,0,0,1,3.167,3.167h0a3.156,3.156,0,0,1-3.166,3.167h0A3.173,3.173,0,0,1,410.053,20.482Zm-16.121,0a3.163,3.163,0,0,1,3.166-3.167h0a3.16,3.16,0,0,1,3.169,3.167h0A3.168,3.168,0,0,1,397.1,23.65h0A3.172,3.172,0,0,1,393.933,20.482Zm-16.124,0a3.16,3.16,0,0,1,3.164-3.166h0a3.15,3.15,0,0,1,3.169,3.166h0a3.162,3.162,0,0,1-3.166,3.167h0A3.175,3.175,0,0,1,377.808,20.482Zm-16.123,0a3.153,3.153,0,0,1,3.164-3.167h0a3.169,3.169,0,0,1,3.171,3.167h0a3.178,3.178,0,0,1-3.166,3.167h0A3.162,3.162,0,0,1,361.686,20.482Zm-16.126,0a3.153,3.153,0,0,1,3.166-3.167h0a3.164,3.164,0,0,1,3.169,3.167h0a3.176,3.176,0,0,1-3.169,3.167h0A3.163,3.163,0,0,1,345.559,20.482Zm-16.124,0a3.154,3.154,0,0,1,3.166-3.167h0a3.164,3.164,0,0,1,3.166,3.167h0A3.172,3.172,0,0,1,332.6,23.65h0A3.165,3.165,0,0,1,329.435,20.482Z" transform="translate(-329.435 -17.315)" fill="#dc3545"/></g><g transform="translate(177.39 0.039)"><path d="M423.94,23.636a3.264,3.264,0,0,1-2.233-.937,3.208,3.208,0,0,1-.937-2.233,3.169,3.169,0,1,1,6.338,0,3.19,3.19,0,0,1-.916,2.233A3.242,3.242,0,0,1,423.94,23.636Z" transform="translate(-420.769 -17.337)" fill="#dc3545"/></g></g><g transform="translate(0.016 119.347)"><g transform="translate(0 0.046)"><path d="M323.456,33.5a3.132,3.132,0,0,1-3.155-3.162,3.155,3.155,0,0,1,.92-2.233,3.263,3.263,0,0,1,4.479,0,3.157,3.157,0,0,1-2.244,5.4Z" transform="translate(-320.301 -27.209)" fill="#dc3545"/></g><g transform="translate(16.126)"><path d="M474.565,30.354a3.183,3.183,0,0,1,3.171-3.171h0a3.165,3.165,0,0,1,3.166,3.171h0a3.162,3.162,0,0,1-3.166,3.167h0A3.171,3.171,0,0,1,474.565,30.354Zm-16.123,0a3.17,3.17,0,0,1,3.166-3.164h0a3.176,3.176,0,0,1,3.171,3.167h0a3.164,3.164,0,0,1-3.171,3.162h0A3.163,3.163,0,0,1,458.443,30.35Zm-16.126,0a3.167,3.167,0,0,1,3.167-3.167h0a3.169,3.169,0,0,1,3.169,3.167h0a3.16,3.16,0,0,1-3.169,3.162h0A3.151,3.151,0,0,1,442.316,30.354Zm-16.124,0a3.165,3.165,0,0,1,3.166-3.167h0a3.171,3.171,0,0,1,3.167,3.167h0a3.159,3.159,0,0,1-3.166,3.162h0A3.153,3.153,0,0,1,426.192,30.354Zm-16.139,0a3.176,3.176,0,0,1,3.171-3.171h0a3.164,3.164,0,0,1,3.166,3.167h0a3.152,3.152,0,0,1-3.171,3.166h0A3.163,3.163,0,0,1,410.053,30.354Zm-16.121,0a3.175,3.175,0,0,1,3.162-3.167h0a3.169,3.169,0,0,1,3.171,3.171h0a3.156,3.156,0,0,1-3.167,3.162h0A3.163,3.163,0,0,1,393.933,30.35Zm-16.126,0a3.174,3.174,0,0,1,3.169-3.171h0a3.168,3.168,0,0,1,3.167,3.167h0a3.157,3.157,0,0,1-3.171,3.166h0A3.166,3.166,0,0,1,377.806,30.354Zm-16.123,0a3.179,3.179,0,0,1,3.166-3.167h0a3.183,3.183,0,0,1,3.171,3.171h0a3.164,3.164,0,0,1-3.166,3.162h0A3.164,3.164,0,0,1,361.684,30.35Zm-16.124,0a3.161,3.161,0,0,1,3.166-3.164h0a3.173,3.173,0,0,1,3.169,3.167h0a3.162,3.162,0,0,1-3.166,3.162h0A3.146,3.146,0,0,1,345.559,30.35Zm-16.124,0a3.163,3.163,0,0,1,3.167-3.167h0a3.171,3.171,0,0,1,3.164,3.167h0a3.161,3.161,0,0,1-3.166,3.162h0A3.147,3.147,0,0,1,329.435,30.354Z" transform="translate(-329.435 -27.183)" fill="#dc3545"/></g><g transform="translate(177.377 0.052)"><path d="M423.94,33.493a3.2,3.2,0,0,1-2.233-.915,3.258,3.258,0,0,1-.937-2.251,3.22,3.22,0,0,1,.937-2.23,3.281,3.281,0,0,1,4.484,0,3.218,3.218,0,0,1,.932,2.233,3.26,3.26,0,0,1-.932,2.247A3.219,3.219,0,0,1,423.94,33.493Z" transform="translate(-420.769 -27.212)" fill="#dc3545"/></g></g><g transform="translate(0 137.9)"><g transform="translate(0.019 0)"><g transform="translate(0 0.045)"><path d="M323.454,44.014a3.171,3.171,0,0,1-2.235-5.4,3.153,3.153,0,0,1,5.4,2.23,3.191,3.191,0,0,1-.922,2.232A3.137,3.137,0,0,1,323.454,44.014Z" transform="translate(-320.303 -37.717)" fill="#dc3545"/></g><g transform="translate(16.123)"><path d="M474.565,40.865a3.171,3.171,0,0,1,3.171-3.173h0a3.158,3.158,0,0,1,3.166,3.171h0a3.169,3.169,0,0,1-3.166,3.171h0A3.177,3.177,0,0,1,474.565,40.865Zm-16.123,0a3.163,3.163,0,0,1,3.166-3.167h0a3.159,3.159,0,0,1,3.171,3.167h0a3.177,3.177,0,0,1-3.171,3.169h0A3.176,3.176,0,0,1,458.443,40.865Zm-16.128,0a3.16,3.16,0,0,1,3.169-3.171h0a3.176,3.176,0,0,1,3.173,3.171h0a3.187,3.187,0,0,1-3.173,3.171h0A3.17,3.17,0,0,1,442.315,40.863Zm-16.117,0a3.153,3.153,0,0,1,3.162-3.171h0a3.171,3.171,0,0,1,3.169,3.173h0a3.168,3.168,0,0,1-3.164,3.164h0A3.154,3.154,0,0,1,426.2,40.863Zm-16.128,0a3.156,3.156,0,0,1,3.151-3.171h0a3.174,3.174,0,0,1,3.183,3.173h0a3.181,3.181,0,0,1-3.185,3.169h0A3.162,3.162,0,0,1,410.069,40.863Zm-16.137,0a3.165,3.165,0,0,1,3.162-3.171h0a3.162,3.162,0,0,1,3.171,3.173h0a3.163,3.163,0,0,1-3.167,3.164h0A3.167,3.167,0,0,1,393.933,40.863Zm-16.126,0a3.171,3.171,0,0,1,3.169-3.173h0a3.162,3.162,0,0,1,3.167,3.171h0a3.173,3.173,0,0,1-3.171,3.171h0A3.182,3.182,0,0,1,377.806,40.865Zm-16.123,0a3.173,3.173,0,0,1,3.166-3.171h0a3.177,3.177,0,0,1,3.171,3.173h0a3.178,3.178,0,0,1-3.166,3.169h0A3.182,3.182,0,0,1,361.684,40.863Zm-16.124,0a3.154,3.154,0,0,1,3.166-3.166h0a3.165,3.165,0,0,1,3.169,3.167h0a3.176,3.176,0,0,1-3.166,3.169h0A3.173,3.173,0,0,1,345.559,40.863Zm-16.124,0a3.157,3.157,0,0,1,3.169-3.173h0a3.168,3.168,0,0,1,3.167,3.171h0a3.183,3.183,0,0,1-3.171,3.171h0A3.166,3.166,0,0,1,329.435,40.865Z" transform="translate(-329.435 -37.692)" fill="#dc3545"/></g><g transform="translate(177.374 0.043)"><path d="M423.94,44.015a3.129,3.129,0,0,1-2.233-.939,3.123,3.123,0,0,1,0-4.461,3.162,3.162,0,0,1,5.415,2.23,3.194,3.194,0,0,1-.932,2.232A3.136,3.136,0,0,1,423.94,44.015Z" transform="translate(-420.769 -37.717)" fill="#dc3545"/></g></g><g transform="translate(0.016 17.441)"><g transform="translate(0 0.041)"><path d="M323.456,53.886a3.177,3.177,0,0,1-2.235-5.413,3.3,3.3,0,0,1,4.483,0,3.173,3.173,0,0,1-2.247,5.413Z" transform="translate(-320.301 -47.594)" fill="#dc3545"/></g><g transform="translate(16.126)"><path d="M474.563,50.738a3.168,3.168,0,0,1,3.173-3.167h0a3.155,3.155,0,0,1,3.166,3.167h0a3.166,3.166,0,0,1-3.166,3.169h0A3.183,3.183,0,0,1,474.563,50.738Zm-16.116,0a3.16,3.16,0,0,1,3.16-3.167h0a3.169,3.169,0,0,1,3.171,3.167h0a3.181,3.181,0,0,1-3.171,3.166h0A3.162,3.162,0,0,1,458.448,50.738Zm-16.131,0a3.157,3.157,0,0,1,3.167-3.167h0a3.165,3.165,0,0,1,3.169,3.167h0a3.178,3.178,0,0,1-3.169,3.169h0A3.172,3.172,0,0,1,442.316,50.738Zm-16.124,0a3.156,3.156,0,0,1,3.169-3.167h0a3.169,3.169,0,0,1,3.169,3.167h0a3.182,3.182,0,0,1-3.169,3.169h0A3.17,3.17,0,0,1,426.192,50.738Zm-16.119,0a3.149,3.149,0,0,1,3.148-3.167h0a3.157,3.157,0,0,1,3.169,3.167h0a3.166,3.166,0,0,1-3.166,3.169h0A3.159,3.159,0,0,1,410.073,50.738Zm-16.14,0a3.163,3.163,0,0,1,3.166-3.167h0a3.158,3.158,0,0,1,3.169,3.167h0a3.171,3.171,0,0,1-3.169,3.169h0A3.173,3.173,0,0,1,393.933,50.738Zm-16.124,0a3.164,3.164,0,0,1,3.164-3.167h0a3.16,3.16,0,0,1,3.171,3.173h0a3.17,3.17,0,0,1-3.167,3.164h0A3.173,3.173,0,0,1,377.808,50.738Zm-16.124.005a3.154,3.154,0,0,1,3.171-3.173h0a3.167,3.167,0,0,1,3.166,3.167h0a3.179,3.179,0,0,1-3.171,3.169h0A3.164,3.164,0,0,1,361.684,50.744Zm-16.124,0a3.153,3.153,0,0,1,3.166-3.173h0a3.167,3.167,0,0,1,3.169,3.167h0a3.175,3.175,0,0,1-3.169,3.169h0A3.162,3.162,0,0,1,345.559,50.744Zm-16.124-.005a3.156,3.156,0,0,1,3.167-3.167h0a3.162,3.162,0,0,1,3.166,3.167h0a3.177,3.177,0,0,1-3.166,3.169h0A3.165,3.165,0,0,1,329.435,50.738Z" transform="translate(-329.435 -47.571)" fill="#dc3545"/></g><g transform="translate(177.379 0.038)"><path d="M423.939,53.887a3.189,3.189,0,0,1-3.169-3.166,3.245,3.245,0,0,1,.936-2.248,3.289,3.289,0,0,1,4.483,0,3.154,3.154,0,0,1,0,4.481A3.2,3.2,0,0,1,423.939,53.887Z" transform="translate(-420.77 -47.592)" fill="#dc3545"/></g></g><g transform="translate(0 34.325)"><g transform="translate(0 0.056)"><path d="M323.479,63.446a3.157,3.157,0,0,1-2.251-5.4,3.285,3.285,0,0,1,4.479,0,3.193,3.193,0,0,1,.925,2.23,3.138,3.138,0,0,1-3.153,3.167Z" transform="translate(-320.292 -57.166)" fill="#dc3545"/></g><g transform="translate(16.142)"><path d="M474.565,60.3a3.176,3.176,0,0,1,3.171-3.169h0A3.168,3.168,0,0,1,480.9,60.3h0a3.154,3.154,0,0,1-3.166,3.167h0A3.169,3.169,0,0,1,474.565,60.3Zm-16.124,0a3.175,3.175,0,0,1,3.167-3.169h0a3.179,3.179,0,0,1,3.171,3.169h0a3.174,3.174,0,0,1-3.171,3.171h0A3.177,3.177,0,0,1,458.441,60.3Zm-16.126,0a3.171,3.171,0,0,1,3.169-3.169h0a3.186,3.186,0,0,1,3.173,3.169h0a3.179,3.179,0,0,1-3.173,3.171h0A3.166,3.166,0,0,1,442.315,60.3Zm-16.117,0a3.163,3.163,0,0,1,3.167-3.169h0a3.174,3.174,0,0,1,3.164,3.169h0a3.167,3.167,0,0,1-3.169,3.167h0A3.151,3.151,0,0,1,426.2,60.3Zm-16.144,0a3.177,3.177,0,0,1,3.167-3.169h0A3.166,3.166,0,0,1,416.39,60.3h0a3.154,3.154,0,0,1-3.166,3.167h0A3.169,3.169,0,0,1,410.053,60.3Zm-16.121,0a3.173,3.173,0,0,1,3.166-3.169h0a3.171,3.171,0,0,1,3.169,3.173h0a3.166,3.166,0,0,1-3.169,3.167h0A3.173,3.173,0,0,1,393.933,60.3Zm-16.126,0a3.178,3.178,0,0,1,3.166-3.169h0a3.167,3.167,0,0,1,3.171,3.169h0a3.157,3.157,0,0,1-3.167,3.167h0A3.167,3.167,0,0,1,377.806,60.3Zm-16.123,0a3.175,3.175,0,0,1,3.166-3.169h0a3.174,3.174,0,0,1,3.167,3.169h0a3.162,3.162,0,0,1-3.167,3.167h0A3.163,3.163,0,0,1,361.684,60.3Zm-16.124,0a3.166,3.166,0,0,1,3.169-3.169h0a3.175,3.175,0,0,1,3.166,3.164h0a3.169,3.169,0,0,1-3.173,3.173h0A3.153,3.153,0,0,1,345.559,60.3Zm-16.124,0a3.162,3.162,0,0,1,3.167-3.169h0a3.185,3.185,0,0,1,3.169,3.169h0a3.178,3.178,0,0,1-3.169,3.171h0A3.165,3.165,0,0,1,329.435,60.3Z" transform="translate(-329.435 -57.134)" fill="#dc3545"/></g><g transform="translate(177.393 0.054)"><path d="M423.94,63.447a3.207,3.207,0,0,1-2.233-.916,3.269,3.269,0,0,1-.937-2.251,3.206,3.206,0,0,1,.937-2.233,3.289,3.289,0,0,1,4.483,0,3.2,3.2,0,0,1,0,4.484A3.242,3.242,0,0,1,423.94,63.447Z" transform="translate(-420.769 -57.164)" fill="#dc3545"/></g></g></g></g></g></svg>