<svg xmlns="http://www.w3.org/2000/svg" xmlns:xlink="http://www.w3.org/1999/xlink" width="1920" height="911" viewBox="0 0 1920 911"><defs><linearGradient id="a" x1="0.017" y1="0.027" x2="1.075" y2="0.966" gradientUnits="objectBoundingBox"><stop offset="0" stop-color="#d6d3d3"/><stop offset="0.33" stop-color="#e9e7e7"/><stop offset="0.716" stop-color="#f9f8f8"/><stop offset="1" stop-color="#fff"/></linearGradient><clipPath id="b"><path d="M60,0H1860a60,60,0,0,1,60,60V851a60,60,0,0,1-60,60H60A60,60,0,0,1,0,851V60A60,60,0,0,1,60,0Z" transform="translate(8474 1422)" fill="url(#a)"/></clipPath></defs><g transform="translate(-8474 -1422)" clip-path="url(#b)"><path d="M60,0H1860a60,60,0,0,1,60,60V851a60,60,0,0,1-60,60H60A60,60,0,0,1,0,851V60A60,60,0,0,1,60,0Z" transform="translate(8474 1422)" fill="url(#a)"/><path d="M410,70C222.523,70,70,222.12,70,409.1S222.523,748.2,410,748.2,750,596.08,750,409.1,597.477,70,410,70m0-70C636.437,0,820,183.16,820,409.1S636.437,818.2,410,818.2,0,635.04,0,409.1,183.563,0,410,0Z" transform="translate(9680 1171.931)" fill="#000e39" opacity="0.03"/><path d="M410,70C222.523,70,70,222.12,70,409.1S222.523,748.2,410,748.2,750,596.08,750,409.1,597.477,70,410,70m0-70C636.437,0,820,183.16,820,409.1S636.437,818.2,410,818.2,0,635.04,0,409.1,183.563,0,410,0Z" transform="translate(9984 1097.931)" fill="#000e39" opacity="0.03"/></g></svg>