<svg xmlns="http://www.w3.org/2000/svg" xmlns:xlink="http://www.w3.org/1999/xlink" width="168.215" height="138.509" viewBox="0 0 168.215 138.509"><defs><clipPath id="a"><rect x="13" y="91" width="168.215" height="138.509" fill="none"/></clipPath></defs><g transform="translate(-13 -91)" clip-path="url(#a)" style="isolation:isolate"><g transform="translate(0.167 0.186)" opacity="0.66"><path d="M465.711,290.33c12.341,11.034,20.533,28.11,22.893,46.167,2.477,18.946-1.14,38.822,6.243,56.665,4.844,11.707,13.873,21.306,24.637,23.916,21.925,5.317,44.187-18.143,65.563-10.285a40.749,40.749,0,0,1,10.31,6.035c7.233,5.484,13.793,12.159,21.107,17.491,16.572,12.082,36.875,16.763,56.052,12.925" transform="translate(-465.711 -215.498)" fill="none" stroke="#fff" stroke-miterlimit="10" stroke-width="0.5"/><path d="M477.808,305.2c12.429,11.113,20.648,28.358,22.937,46.56a141.135,141.135,0,0,1,.88,17.764c-.015,13.4-.808,26.819,4.09,39.317,4.52,11.533,13.353,20.957,23.845,23.6a28.182,28.182,0,0,0,7.8.81c5.81-.183,11.62-1.94,17.4-4.073,13.03-4.807,25.942-11.447,38.673-7.669a40.716,40.716,0,0,1,10.4,5.076c6.108,3.946,11.813,8.805,17.741,13.416,1.228.954,2.462,1.9,3.711,2.813a85.522,85.522,0,0,0,21.545,11.778,64.264,64.264,0,0,0,33.875,2.712" transform="translate(-471.436 -238.683)" fill="none" stroke="#fff" stroke-miterlimit="10" stroke-width="0.5"/><path d="M489.9,320.032c12.517,11.192,20.763,28.605,22.98,46.953a127.908,127.908,0,0,1,.707,17.887c-.27,13.464-1.686,26.97,2.99,39.609,4.2,11.355,12.834,20.61,23.053,23.28a27.086,27.086,0,0,0,7.611.847c5.683-.153,11.356-1.892,16.98-4,12.669-4.742,25.163-11.22,37.6-8.43a41.132,41.132,0,0,1,10.485,4.118c6.224,3.349,12.1,7.706,18.08,12.192,1.237.928,2.473,1.859,3.717,2.775,6.741,4.966,13.7,9.461,21.137,12.5a59.9,59.9,0,0,0,33.652,3.558" transform="translate(-477.16 -261.83)" fill="none" stroke="#fff" stroke-miterlimit="10" stroke-width="0.5"/><path d="M502,334.83c12.605,11.271,20.878,28.852,23.022,47.344a117.187,117.187,0,0,1,.534,18.012c-.524,13.532-2.559,27.117,1.89,39.9,3.889,11.173,12.314,20.263,22.261,22.962a25.984,25.984,0,0,0,7.419.885c5.557-.124,11.091-1.843,16.558-3.922,12.307-4.678,24.392-11.011,36.534-9.192a42,42,0,0,1,10.572,3.159,99.587,99.587,0,0,1,18.42,10.968c1.247.9,2.484,1.82,3.722,2.737,6.711,4.971,13.437,9.855,20.729,13.215a56.112,56.112,0,0,0,33.428,4.4" transform="translate(-482.885 -284.942)" fill="none" stroke="#fff" stroke-miterlimit="10" stroke-width="0.5"/><path d="M514.1,349.6c12.693,11.349,20.993,29.1,23.066,47.737a108.318,108.318,0,0,1,.36,18.136c-.779,13.6-3.425,27.26.79,40.192,3.581,10.987,11.794,19.915,21.469,22.643a24.92,24.92,0,0,0,7.227.924c5.432-.1,10.827-1.8,16.136-3.846,11.945-4.614,23.628-10.824,35.465-9.953a43.328,43.328,0,0,1,10.66,2.2,74.089,74.089,0,0,1,18.76,9.745c1.255.876,2.495,1.782,3.728,2.7,6.681,4.975,13.172,10.25,20.321,13.934a52.8,52.8,0,0,0,33.2,5.25" transform="translate(-488.609 -308.028)" fill="none" stroke="#fff" stroke-miterlimit="10" stroke-width="0.5"/><path d="M526.2,364.35C538.978,375.779,547.3,393.7,549.3,412.48a100.892,100.892,0,0,1,.187,18.26c-1.033,13.668-4.285,27.4-.31,40.483,3.28,10.8,11.274,19.568,20.677,22.325a23.863,23.863,0,0,0,7.035.961c5.305-.066,10.563-1.747,15.714-3.771,11.583-4.55,22.875-10.232,34.4-10.714a39.093,39.093,0,0,1,10.746,1.24,58.474,58.474,0,0,1,19.1,8.521c1.265.849,2.506,1.743,3.733,2.662,6.651,4.978,12.907,10.645,19.913,14.652a49.911,49.911,0,0,0,32.98,6.1" transform="translate(-494.333 -331.091)" fill="none" stroke="#fff" stroke-miterlimit="10" stroke-width="0.5"/><path d="M538.293,379.079c12.87,11.508,21.223,29.595,23.152,48.523a94.6,94.6,0,0,1,.014,18.384c-1.288,13.736-5.137,27.536-1.41,40.774,2.987,10.608,10.755,19.221,19.885,22.008a22.818,22.818,0,0,0,6.843,1c5.179-.036,10.3-1.7,15.292-3.7,11.222-4.485,22.106-10.517,33.326-11.475a47.1,47.1,0,0,1,10.834.281,48.284,48.284,0,0,1,19.44,7.3c1.275.823,2.517,1.705,3.739,2.624,6.621,4.983,12.642,11.04,19.5,15.371a47.374,47.374,0,0,0,32.756,6.941" transform="translate(-500.058 -354.135)" fill="none" stroke="#fff" stroke-miterlimit="10" stroke-width="0.5"/><path d="M550.39,393.791c12.958,11.586,21.338,29.842,23.195,48.915a89.168,89.168,0,0,1-.16,18.508c-1.542,13.805-5.981,27.669-2.509,41.066,2.7,10.414,10.235,18.873,19.093,21.689a21.8,21.8,0,0,0,6.651,1.037c5.053-.008,10.033-1.651,14.87-3.62,10.86-4.421,21.34-10.4,32.258-12.236a49.37,49.37,0,0,1,10.921-.677,41.3,41.3,0,0,1,19.779,6.073c1.284.8,2.528,1.666,3.745,2.587,6.591,4.986,12.377,11.435,19.1,16.09a45.152,45.152,0,0,0,32.532,7.788" transform="translate(-505.783 -377.162)" fill="none" stroke="#fff" stroke-miterlimit="10" stroke-width="0.5"/><path d="M562.487,408.49c13.046,11.665,21.453,30.089,23.237,49.307a84.514,84.514,0,0,1-.333,18.632c-1.8,13.873-6.815,27.8-3.61,41.357,2.416,10.22,9.715,18.525,18.3,21.372a20.793,20.793,0,0,0,6.459,1.074c4.927.021,9.769-1.6,14.449-3.544,10.5-4.357,20.565-10.3,31.188-13a51.708,51.708,0,0,1,11.009-1.636,36.377,36.377,0,0,1,20.119,4.849,40.109,40.109,0,0,1,3.75,2.549c6.56,4.991,12.112,11.83,18.688,16.808a43.2,43.2,0,0,0,32.308,8.633" transform="translate(-511.507 -400.175)" fill="none" stroke="#fff" stroke-miterlimit="10" stroke-width="0.5"/><path d="M574.583,423.176C591.95,438.7,601.1,466.2,597.358,491.632c-2.052,13.942-7.639,27.93-4.71,41.649,2.664,12.474,12.937,22.052,23.776,22.166,4.8.05,9.5-1.553,14.026-3.469,10.137-4.292,19.778-10.217,30.119-13.759s21.854-4.5,31.555,1.031c8.361,4.771,14.415,13.757,22.036,20.039a41.487,41.487,0,0,0,32.085,9.479" transform="translate(-517.231 -423.176)" fill="none" stroke="#fff" stroke-miterlimit="10" stroke-width="0.5"/></g></g></svg>